<svg xmlns="http://www.w3.org/2000/svg" xmlns:xlink="http://www.w3.org/1999/xlink" version="1.1" xml:space="preserve" width="29.75903615011569" height="19.650602808329495"><rect id="backgroundrect" width="100%" height="100%" x="0" y="0" fill="none" stroke="none" class="" style=""/><g class="currentLayer" style=""><title>Layer 1</title><g id="svg_1" class=""><g xmlns="http://www.w3.org/2000/svg" xmlns:xlink="http://www.w3.org/1999/xlink" id="svg_2"><path d="M28.616454085111613,17.926076472282375 c-0.3250000000000002,-0.07 -0.6110000000000003,-0.17600000000000007 -0.8570000000000003,-0.31600000000000017 c-0.3260000000000002,-0.1930000000000001 -0.5770000000000003,-0.3980000000000003 -0.7530000000000003,-0.6130000000000003 c-0.17700000000000007,-0.21700000000000008 -0.3210000000000002,-0.455 -0.43700000000000017,-0.7210000000000003 c-0.6870000000000006,-1.6190000000000002 -1.518,-3.66 -2.495,-6.125 c-0.978,-2.465 -2.329,-5.818 -4.054,-10.063 h-2.641 c-1.241,2.9939999999999998 -2.375,5.73 -3.399,8.213 c-1.026,2.482 -2.049,4.961 -3.07,7.434 c-0.16700000000000012,0.42200000000000015 -0.37600000000000017,0.789 -0.6270000000000003,1.096 c-0.251,0.30900000000000016 -0.557,0.5680000000000003 -0.917,0.779 c-0.21200000000000008,0.133 -0.5,0.23600000000000004 -0.8650000000000003,0.31000000000000016 c-0.36500000000000016,0.07400000000000002 -0.6930000000000006,0.12100000000000002 -0.984,0.139 V19.08807647228241 h7.686 v-1.029 c-0.995,-0.08800000000000006 -1.707,-0.231 -2.133,-0.43000000000000016 c-0.42800000000000016,-0.1970000000000001 -0.6410000000000003,-0.43800000000000017 -0.6410000000000003,-0.7190000000000003 c0,-0.08800000000000006 0.015000000000000008,-0.24200000000000008 0.04700000000000002,-0.463 c0.029000000000000015,-0.21900000000000008 0.129,-0.5760000000000003 0.29700000000000015,-1.068 c0.132,-0.37900000000000017 0.28800000000000014,-0.81 0.46900000000000014,-1.295 c0.139,-0.37100000000000016 0.265,-0.6970000000000006 0.3850000000000002,-0.996 h6.691 l1.486,3.611 c0.06100000000000003,0.14800000000000008 0.09900000000000009,0.268 0.11100000000000004,0.35500000000000015 c0.014000000000000005,0.08800000000000006 0.02100000000000001,0.16800000000000012 0.02100000000000001,0.23800000000000004 c0,0.203 -0.3210000000000002,0.37100000000000016 -0.9640000000000003,0.508 s-0.995,0.2230000000000001 -1.471,0.258 V19.08807647228241 h10 v-1.029 C29.237454085111622,18.041076472282384 28.941454085111616,17.998076472282378 28.616454085111613,17.926076472282375 zM19.495454085111618,11.08807647228241 h-5.064 l2.5140000000000002,-6.365 L19.495454085111618,11.08807647228241 z" id="svg_3"/><path d="M16.048454085111615,18.232076472282415 c-0.24000000000000007,-0.05300000000000003 -0.451,-0.129 -0.6330000000000003,-0.234 c-0.24000000000000007,-0.14300000000000004 -0.42500000000000016,-0.29300000000000015 -0.555,-0.451 c-0.129,-0.1600000000000001 -0.23600000000000004,-0.3360000000000003 -0.3200000000000002,-0.531 c-0.506,-1.193 -1.119,-2.697 -1.84,-4.514 c-0.7190000000000003,-1.816 -1.715,-4.287 -2.9859999999999998,-7.414 h-1.945 c-0.914,2.205 -1.75,4.223 -2.5060000000000002,6.053 c-0.7560000000000003,1.828 -1.51,3.654 -2.262,5.477 c-0.12300000000000004,0.31000000000000016 -0.277,0.5800000000000003 -0.462,0.809 c-0.18500000000000008,0.2270000000000001 -0.41000000000000014,0.41800000000000015 -0.6760000000000006,0.5720000000000003 c-0.15600000000000008,0.09800000000000009 -0.36800000000000016,0.17400000000000004 -0.6380000000000003,0.23 c-0.27,0.05500000000000002 -0.512,0.08800000000000006 -0.7250000000000003,0.10200000000000002 V19.08807647228241 h5.662 v-0.7580000000000003 c-0.7320000000000003,-0.06500000000000004 -1.2570000000000001,-0.17 -1.5710000000000002,-0.31600000000000017 c-0.31300000000000017,-0.14600000000000007 -0.47200000000000014,-0.3220000000000002 -0.47200000000000014,-0.531 c0,-0.06400000000000004 0.012000000000000005,-0.17800000000000007 0.035,-0.3400000000000003 c0.02100000000000001,-0.1620000000000001 0.09400000000000008,-0.42400000000000015 0.21800000000000008,-0.787 c0.09700000000000009,-0.279 0.21200000000000008,-0.5980000000000003 0.3460000000000003,-0.9550000000000003 c0.03400000000000002,-0.09200000000000008 0.23700000000000004,-0.6070000000000003 0.516,-1.3130000000000002 h4.479 l1.314,3.24 c0.04500000000000003,0.10900000000000004 0.07200000000000002,0.1970000000000001 0.08200000000000005,0.262 c0.010000000000000005,0.06400000000000004 0.01600000000000001,0.12300000000000004 0.01600000000000001,0.17600000000000007 c0,0.14800000000000008 -0.23800000000000004,0.273 -0.7110000000000003,0.37500000000000017 c-0.47500000000000014,0.1 -0.8860000000000003,0.1640000000000001 -1.236,0.19000000000000009 V19.08807647228241 H16.501454085111618 v-0.7580000000000003 C16.501454085111618,18.33007647228237 16.288454085111624,18.285076472282412 16.048454085111615,18.232076472282415 zM5.630454085111623,13.08807647228241 c0.795,-2.008 1.8170000000000002,-4.584 1.8170000000000002,-4.584 l1.86,4.584 H5.630454085111623 z" id="svg_4"/></g></g></g></svg>