<svg xmlns="http://www.w3.org/2000/svg" data-name="Layer 1" viewBox="0 0 1024 1280" x="0px" y="0px"><title>icon-01</title><path fill="#000000" d="M812 566.7H448.8c-30.1 0-54.5-24.4-54.5-54.5s24.4-54.5 54.5-54.5H812c30.1 0 54.5 24.4 54.5 54.5s-24.4 54.5-54.5 54.5z m0-254.3H448.8c-30.1 0-54.5-24.4-54.5-54.5s24.4-54.5 54.5-54.5H812c30.1 0 54.5 24.4 54.5 54.5s-24.4 54.5-54.5 54.5zM230.8 839.1c-40.1 0-72.6-32.5-72.6-72.6 0-40.1 32.5-72.6 72.6-72.6s72.6 32.5 72.6 72.6c0.1 40-32.4 72.6-72.6 72.6z m0-254.3c-40.1 0-72.6-32.5-72.6-72.6s32.5-72.6 72.6-72.6 72.6 32.5 72.6 72.6-32.4 72.6-72.6 72.6z m0-254.2c-40.1 0-72.6-32.5-72.6-72.6s32.5-72.6 72.6-72.6 72.6 32.5 72.6 72.6-32.4 72.6-72.6 72.6z m218 381.3H812c30.1 0 54.5 24.4 54.5 54.5s-24.4 54.5-54.5 54.5H448.8c-30.1 0-54.5-24.4-54.5-54.5s24.4-54.5 54.5-54.5z"/></svg>