<svg xmlns="http://www.w3.org/2000/svg" data-name="Layer 1" width="77.97637778719763" height="71.12598413371268" style=""><rect id="backgroundrect" width="100%" height="100%" x="0" y="0" fill="none" stroke="none" class="" style=""/><title>Artboard 212</title><g class="currentLayer" style=""><title>Layer 1</title><path d="M19.763779640197754,20.251968383789062 V52.25196838378906 a6,6 0 0 0 6,6 H53.763779640197754 a6,6 0 0 0 6,-6 V20.251968383789062 a6,6 0 0 0 -6,-6 H51.763779640197754 V12.251968383789062 a2,2 0 0 0 -4,0 v2 H41.763779640197754 V12.251968383789062 a2,2 0 0 0 -4,0 v2 H31.763779640197754 V12.251968383789062 a2,2 0 0 0 -4,0 v2 H25.763779640197754 A6,6 0 0 0 19.763779640197754,20.251968383789062 zm10,2 a2,2 0 0 0 2,-2 V18.251968383789062 h6 v2 a2,2 0 0 0 4,0 V18.251968383789062 h6 v2 a2,2 0 0 0 4,0 V18.251968383789062 h2 a2,2 0 0 1 2,2 V52.25196838378906 a2,2 0 0 1 -2,2 H25.763779640197754 a2,2 0 0 1 -2,-2 V20.251968383789062 a2,2 0 0 1 2,-2 h2 v2 A2,2 0 0 0 29.763779640197754,22.251968383789062 z" id="svg_1" class=""/><path d="M49.763779640197754,36.25196838378906 H29.763779640197754 a2,2 0 0 0 0,4 H49.763779640197754 a2,2 0 0 0 0,-4 z" id="svg_2" class=""/><path d="M49.763779640197754,44.25196838378906 H29.763779640197754 a2,2 0 0 0 0,4 H49.763779640197754 a2,2 0 0 0 0,-4 z" id="svg_3" class=""/><path d="M29.763779640197754,32.25196838378906 H49.763779640197754 a2,2 0 0 0 0,-4 H29.763779640197754 a2,2 0 0 0 0,4 z" id="svg_4" class=""/></g></svg>