<svg xmlns="http://www.w3.org/2000/svg" xmlns:xlink="http://www.w3.org/1999/xlink" version="1.1" enable-background="new 0 0 100 100" xml:space="preserve" width="85.51724185558058" height="85.00000131541287"><rect id="backgroundrect" width="100%" height="100%" x="0" y="0" fill="none" stroke="none" class="" style=""/><g class="currentLayer" style=""><title>Layer 1</title><g id="svg_1" class=""><g id="svg_2"><path d="M40.02241261817233,83.47562476584035 c-0.04557015180587771,0 -0.09114030361175542,-0.0020169129371643076 -0.1377231254577637,-0.005042282342910769 C18.32393166829364,81.9861345617445 1.4346207389952375,63.948882164684115 1.4346207389952375,42.40119280048925 c0,-22.700355107784272 18.545026444911954,-41.169226873397825 41.34124171829223,-41.169226873397825 c22.79621527338028,0 41.34124171829223,18.467863309144974 41.34124171829223,41.169226873397825 c0,21.47205512905121 -16.175378551006318,39.100882656335834 -37.62474267101288,41.00384001255035 c-1.068366892337799,0.09479490804672247 -2.037492120742798,-0.6988603327274326 -2.1336957745552065,-1.7789172105789186 c-0.09721632385253912,-1.0780399649143217 0.703805677890778,-2.0310313277244565 1.7863499507904055,-2.1258262357711795 c19.402757968902588,-1.7204267354011535 34.034827378749846,-17.67017424249649 34.034827378749846,-37.09909656620025 c0,-20.538224439144134 -16.77892989492416,-37.248348123550414 -37.403980602264404,-37.248348123550414 s-37.403980602264404,16.71012368440628 -37.403980602264404,37.248348123550414 c0,19.49548045063019 15.279165565490722,35.815331481695175 34.7842032084465,37.158595497846605 c1.084569612979889,0.07361732220649722 1.902807005405426,1.0104733815193176 1.828882092475891,2.0895218029022216 C41.91205491305606,82.68398643800336 41.047234698784514,83.47562476584035 40.02241261817233,83.47562476584035 z" id="svg_3"/></g><g id="svg_4"><g id="svg_5"><path d="M40.01836193801181,73.75612132164555 c-0.19949599790573128,0 -0.40203000593185445,-0.030253694057464614 -0.6025386738777163,-0.09378645157814032 c-0.22076206874847418,-0.07059195280075074 -0.4384861273765565,-0.14723464441299444 -0.6541848459243776,-0.23396190071105957 c-1.1493804955482483,-0.4548138673305512 -2.18939262676239,-1.123420506000519 -3.0835802721977235,-1.9816169607639313 c-0.8830482749938967,-0.847103433609009 -1.5959679832458498,-1.8384161422252654 -2.1174930539131167,-2.9446928882598877 c-0.5438038115501405,-1.1466150047779082 -0.8202627325057984,-2.4092025034427644 -0.8202627325057984,-3.749441150188446 c0,-1.2615790421962736 0.2531675100326538,-2.490887477397919 0.753426509857178,-3.650612416267395 c0.4982336597442628,-1.1556911129951477 1.206090017795563,-2.1802828850746154 2.1053410134315493,-3.0435216221809385 c0.5691205625534058,-0.5435580365657807 1.2020393376350402,-1.0175325767993926 1.8906549649238586,-1.4158728818893431 v-0.21883505368232734 c-0.46785355854034427,-0.3045538535118104 -1.3053316817283631,-0.7442408738136294 -2.0536948413848877,-1.0639215743541717 c-0.7230464086532594,-0.3095961358547212 -1.191912637233734,-1.0165241203308106 -1.191912637233734,-1.8000947964191438 v-2.9961241681575776 c0,-1.5147016158103943 0.15190050601959235,-2.9033461730480195 0.4516508378982545,-4.1306376953125 c0.3098770322799684,-1.2585536727905273 0.7807686009407043,-2.4303800892829894 1.402548005580902,-3.4842170989513397 c0.5903866333961488,-0.999380360364914 1.3225470724105834,-1.9836338737010957 2.177240586280823,-2.9235153024196623 c0.8172247223854066,-0.8965178005695346 1.797489321231842,-1.8313569469451905 2.914464375495911,-2.7782975709438325 l2.539776460647583,-2.377940352916718 c0.8283640928268434,-0.7311309397220613 1.5038150095939637,-1.460244966506958 2.051669501304626,-2.2085196661949156 c0.3838019452095033,-0.526414276599884 0.5711459026336672,-1.1688010470867158 0.5711459026336672,-1.958422461986542 c0,-1.1556911129951477 -0.30076300191879285,-1.9876676995754243 -0.9498844976425173,-2.616944535970688 c-0.653172175884247,-0.6323022058010104 -1.5878666229248048,-0.9408898851871491 -2.8607928633689883,-0.9408898851871491 c-2.087112952709198,0 -2.9407937965393067,0.8269343042373659 -3.4015586647987366,1.4491519453525543 c-0.8840609450340273,1.1940124588012695 -1.3539398436546328,2.512065063238144 -1.4379914569854735,4.028783591985703 c-0.02936743116378785,0.5364988412857056 -0.27949693107604984,1.0366932497024537 -0.69064096736908,1.3856191878318789 c-0.4111440362930298,0.3479174816608431 -0.9448211474418641,0.5102789731025695 -1.4835616087913515,0.4558223237991333 l-12.585463258743287,-1.3392301902770998 c-0.5205124006271362,-0.05546510577201845 -0.997479989528656,-0.31463841819763194 -1.3255850825309754,-0.722054831504822 c-0.3270924229621888,-0.4064079568386078 -0.4800055990219117,-0.9257630381584168 -0.4222834067344666,-1.4441096630096435 c0.34228247356414815,-3.0687330338954926 1.1463424854278566,-5.821819193124771 2.3899012947082516,-8.18160732960701 c1.2577361898422241,-2.3900418305397033 2.911426365375519,-4.402920941829681 4.913475034713746,-5.985189141035081 c1.9736939082145692,-1.5620990698337553 4.240049458026887,-2.74905233335495 6.733243096828461,-3.52657227063179 c4.734232437610626,-1.4783971829414366 10.27252488708496,-1.5207523546218873 15.267013525009157,-0.17950525140762333 c2.4749655780792237,0.6645728127956393 4.711953696727753,1.7254690177440644 6.65020415353775,3.153443377256393 c1.979769928455353,1.460244966506958 3.58788995218277,3.340007823944092 4.779802589416503,5.58684883594513 c1.2050773477554322,2.2770947060585023 1.8167300519943237,4.971690390110016 1.8167300519943237,8.010169729948043 c0,1.9291772243976593 -0.24709148979187018,3.669773089170456 -0.7331731090545657,5.1723732273578635 c-0.48405627918243416,1.493524029970169 -1.1716592364311218,2.887210869550705 -2.049644161224365,4.143747629404068 c-0.8546935138702395,1.2242661528587342 -1.89268030500412,2.387016461133957 -3.087630952358246,3.452954948425293 c-1.1190003943443299,1.000388816833496 -2.405091345310211,2.0562427394390106 -3.8208040614128116,3.132265791416168 c-0.7696292304992678,0.6212091846466067 -1.440016797065735,1.1980462846755981 -1.952427837371826,1.6780715637207033 c-0.4151947164535523,0.3912811098098756 -0.7382364592552187,0.7845791325569154 -0.9620365381240846,1.17081796002388 c-0.21671138858795172,0.374137349843979 -0.3696245646476747,0.7684438290596011 -0.4577268581390381,1.1738433294296267 c-0.105317684173584,0.46691534495353704 -0.1559511861801148,1.0558539226055144 -0.1559511861801148,1.749671972990036 v2.0491835441589354 c0,0.9378645157814026 -0.6673495564460757,1.743621234178543 -1.5919173030853273,1.9241349420547484 c-0.5438038115501405,0.10790484213829044 -1.2192547283172608,0.3640527851581574 -1.5331824407577515,0.5687694482803346 v0.5980146858692171 c0.6582355260849001,0.38321345806121837 1.2698882303237915,0.8329850430488588 1.823818742275238,1.3442724726200106 c0.9093776960372927,0.8370188689231874 1.627360754489899,1.8575768151283265 2.1336957745552065,3.027386318683624 c0.4982336597442628,1.1597249388694761 0.7514011697769167,2.387016461133957 0.7514011697769167,3.650612416267395 c0,2.6361052088737487 -0.9438084774017335,4.897064611434937 -2.805096011161804,6.718336993694305 c-0.6177287244796755,0.60406542468071 -1.2972303214073182,1.1163613107204438 -2.0192640600204466,1.5217608110904692 c-0.9438084774017335,0.5314565589427949 -2.145847815036774,0.20068283724784858 -2.6815502662658695,-0.742223960876465 c-0.5346897811889648,-0.9439152545928956 -0.2005086679458619,-2.137927713394165 0.745325149536133,-2.6703927288055422 c0.42329607677459724,-0.23698727011680604 0.824313412666321,-0.5415411236286164 1.196975987434387,-0.9055939087867739 c1.0957089834213258,-1.0709807696342468 1.627360754489899,-2.353737397670746 1.627360754489899,-3.920878749847412 c0,-0.7381901350021365 -0.14278647565841676,-1.426965903043747 -0.43544811725616467,-2.103640193462372 c-0.2886109614372254,-0.6726404645442965 -0.6784889268875126,-1.2282999787330626 -1.1898872971534729,-1.6992491495609283 c-0.5448164815902711,-0.5022113213539124 -1.181785936832428,-0.9096277346611024 -1.8936929750442506,-1.2151900446414947 c-0.7220337386131288,-0.3095961358547212 -1.1908999671936034,-1.018541033267975 -1.1908999671936034,-1.8011032528877258 v-2.1238093228340147 c0,-1.7980778834819793 1.4309027667045593,-2.9860396034717565 3.1250997438430783,-3.641536308050156 v-0.5778455564975741 c0,-0.9782027745246887 0.08202627325057986,-1.8485007069110873 0.24506614971160895,-2.5876992983818052 c0.17417924690246583,-0.7966806101799011 0.47494224882125863,-1.5691582651138307 0.8941876454353335,-2.2912130966186526 c0.4141820464134217,-0.7170125491619112 0.9762139186859132,-1.4118390560150145 1.666854886054993,-2.0622934782505036 c0.5934246435165407,-0.5596933400630951 1.321534402370453,-1.1839278941154479 2.2238234081268313,-1.9120334644317631 c1.3772312545776368,-1.0487947273254394 2.5823086023330686,-2.03708206653595 3.6253587436676025,-2.9688958435058592 c0.9681125583648683,-0.8642471935749056 1.8035653414726258,-1.7970694270133973 2.4830669384002686,-2.7732552886009216 c0.6562101860046389,-0.9388729722499848 1.1726719064712523,-1.9846423301696776 1.537233120918274,-3.1090712926387787 c0.3594978642463685,-1.112327484846115 0.5417784714698792,-2.4485323057174684 0.5417784714698792,-3.970293116807938 c0,-2.395084112882614 -0.45671418809890746,-4.474521351099015 -1.361028533935547,-6.179821239471436 c-0.9124157061576843,-1.722443648338318 -2.137746454715729,-3.15646874666214 -3.6395361242294313,-4.264762405633927 c-1.5402711310386656,-1.1345135271549225 -3.3357351121902465,-1.9836338737010957 -5.334745771408081,-2.520132714986801 c-4.270429559230804,-1.1466150047779082 -9.043143458366394,-1.1193866801261902 -13.063443517684936,0.13513316679000856 c-2.031416100502014,0.6333106622695925 -3.8683995532989504,1.5943696768283844 -5.4623421964645384,2.8569571754932404 c-1.5706512322425843,1.2404014563560486 -2.873957573890686,2.833762676715851 -3.8754882435798645,4.73470311999321 c-0.7514011697769167,1.426965903043747 -1.3093823618888856,3.0505808174610136 -1.6648295459747315,4.846641788005829 l8.65529083299637,0.920720755815506 c0.34835849380493183,-1.4783971829414366 0.9863406190872193,-2.8509064366817474 1.90888302564621,-4.0963501753807074 c1.028872760772705,-1.3886445572376251 3.002566668987274,-3.0435216221809385 6.570203220367432,-3.0435216221809385 c2.316989051818848,0 4.202580666542054,0.6918011374473576 5.609179352283477,2.053217370033264 c1.418750726222992,1.379568449020386 2.1387591247558593,3.203866200685501 2.1387591247558593,5.4254958009719845 c0,1.623614914417267 -0.4455748176574708,3.0576400127410888 -1.3255850825309754,4.264762405633927 c-0.7179830584526063,0.9812281439304351 -1.5868539528846743,1.9221180291175843 -2.5853466124534608,2.80048361325264 l-2.56813122177124,2.4031517646312714 c-1.0612782020568847,0.9015600829124453 -1.9179970560073853,1.7174013659954073 -2.620790063858032,2.4878621079921723 c-0.6734255766868594,0.7412155044078829 -1.2455841493606568,1.5076424205303194 -1.7002729973793034,2.2781031625270844 c-0.4263340868949891,0.7230632879734041 -0.7544391798973086,1.538904571056366 -0.9711505684852602,2.428363176345825 c-0.22481274890899663,0.9197122993469239 -0.3392444634437563,1.9967438077926636 -0.3392444634437563,3.1988239183425904 v1.741604321241379 c2.8223114018440247,1.3957037525177003 3.2456074786186218,2.4697098915576934 3.2456074786186218,3.4247181673049925 v2.1238093228340147 c0,0.7916383278369904 -0.47696758890151986,1.505625507593155 -1.2111533679962159,1.8101793611049652 c-0.7179830584526063,0.2985031147003175 -1.3519145035743714,0.708944897413254 -1.8855916147232057,1.2202323269844055 c-0.5245630807876587,0.5022113213539124 -0.9235550765991212,1.0790484213829041 -1.2182420582771303,1.7637903635501864 c-0.2926616415977479,0.6786912033557896 -0.43342277717590344,1.3654500584602356 -0.43342277717590344,2.103640193462372 c0,0.7674353725910189 0.14582448577880863,1.44713503241539 0.4445621476173402,2.077420325279236 c0.32304174280166637,0.6867588551044468 0.7432998094558718,1.2706551504135133 1.2871036210060118,1.790010231733322 c0.5336771111488342,0.5122958860397339 1.1271017546653748,0.8945008876323702 1.8157173819541932,1.1677925906181335 c0.13569778537750246,0.05344819283485414 0.26430688047409057,0.09882873392105108 0.3949413156509401,0.14118390560150149 c1.0349487810134887,0.33178217816352856 1.6050820136070252,1.4360420112609862 1.2719135704040527,2.4666845221519473 C41.62344395161884,73.22668167563992 40.85077671099917,73.75612132164555 40.01836193801181,73.75612132164555 z" id="svg_6"/></g></g></g></g></svg>