<svg xmlns="http://www.w3.org/2000/svg" data-name="pe" width="30.961722341322513" height="41.956937816509225"><rect id="backgroundrect" width="100%" height="100%" x="0" y="0" fill="none" stroke="none"/><title>icone-gesturesespanse</title><g class="currentLayer" style=""><title>Layer 1</title><path d="M13.56853574371338,33.33531105041504 V40.11531105041504 H28.09353574371338 V33.33531105041504 zM26.18253574371338,35.56931105041504 a1.1560000000000001,1.1560000000000001 0 1 1 -1.1560000000000001,1.1560000000000001 A1.1560000000000001,1.1560000000000001 0 0 1 26.18253574371338,35.56931105041504 z" fill="none" id="svg_1" class=""/><path d="M27.65553574371338,26.98331105041504 c1.416,-1.217 1.1520000000000001,-6.673 0.977,-10.284 c-0.04300000000000001,-0.8910000000000001 -0.08300000000000002,-1.7160000000000002 -0.1,-2.416 a1.182,1.182 0 0 0 -2.34,0.024000000000000004 v3.622 a0.6000000000000001,0.6000000000000001 0 0 1 -0.5950000000000001,0.6000000000000001 h0 a0.6000000000000001,0.6000000000000001 0 0 1 -0.6000000000000001,-0.5910000000000001 l-0.06500000000000002,-4.37 a1.212,1.212 0 0 0 -1.3250000000000002,-0.975 c-0.7180000000000001,0 -1.3250000000000002,0.459 -1.3250000000000002,1 v3.537 a0.6000000000000001,0.6000000000000001 0 0 1 -0.6000000000000001,0.6000000000000001 h0 a0.6000000000000001,0.6000000000000001 0 0 1 -0.6000000000000001,-0.6000000000000001 l-0.022000000000000006,-4.366 a1.338,1.338 0 0 0 -2.6500000000000004,0.037000000000000005 v4.121 a0.6000000000000001,0.6000000000000001 0 0 1 -0.6000000000000001,0.6000000000000001 h0 a0.6000000000000001,0.6000000000000001 0 0 1 -0.6000000000000001,-0.6000000000000001 L17.18553574371338,3.090311050415039 A1.36,1.36 0 0 0 15.860535743713378,1.715311050415039 A1.3780000000000001,1.3780000000000001 0 0 0 14.532535743713378,3.135311050415039 V16.31531105041504 c0,1.784 -0.271,2.952 -0.809,3.47 c-0.511,0.49200000000000005 -1.6310000000000002,1.167 -3.379,0.134 c-0.562,-0.3320000000000001 -1.076,-0.6730000000000002 -1.553,-0.99 a5.889,5.889 0 0 0 -2.588,-1.262 c-1.182,0 -2.6,0.23500000000000001 -2.6630000000000003,1.355 c-0.019000000000000003,0.3450000000000001 -0.021000000000000005,0.4 0.9,0.44700000000000006 a2.7590000000000003,2.7590000000000003 0 0 1 1.8,0.529 a14.637,14.637 0 0 1 1.372,1.629 a21.223,21.223 0 0 0 3.611,3.915 c0.04500000000000001,0.03200000000000001 4.426,3.3200000000000003 4.426,4.367 v2.222 h10.25 C25.83253574371338,30.932311050415038 25.94153574371338,28.45331105041504 27.65553574371338,26.98331105041504 z" fill="none" id="svg_2" class=""/><circle cx="26.182536125183105" cy="36.72530937194824" r="1.156000018119812" id="svg_3" class=""/><path d="M28.43253574371338,27.893311050415036 c1.862,-1.6 1.6,-6.9510000000000005 1.395,-11.252 c-0.04300000000000001,-0.8800000000000001 -0.08200000000000002,-1.693 -0.1,-2.3850000000000002 a2.287,2.287 0 0 0 -2.369,-2.175 a2.453,2.453 0 0 0 -1.506,0.508 a2.574,2.574 0 0 0 -2.254,-1.2 a2.7560000000000002,2.7560000000000002 0 0 0 -1.552,0.466 a2.515,2.515 0 0 0 -2.3200000000000003,-1.423 a2.633,2.633 0 0 0 -1.335,0.35800000000000004 l-0.013000000000000003,-7.718 a2.526,2.526 0 1 0 -5.05,0.05800000000000001 V16.31531105041504 c0,1.721 -0.278,2.447 -0.44300000000000006,2.606 s-0.7080000000000001,0.6870000000000002 -1.936,-0.036000000000000004 c-0.542,-0.32000000000000006 -1.038,-0.6500000000000001 -1.5,-0.9560000000000001 a6.461,6.461 0 0 0 -3.253,-1.462 c-3.244,0 -3.8120000000000003,1.561 -3.862,2.491 c-0.08400000000000002,1.6 1.295,1.6700000000000002 2.036,1.709 a1.975,1.975 0 0 1 1.06,0.22300000000000003 a14.862,14.862 0 0 1 1.228,1.474 A22.052,22.052 0 0 0 10.51753574371338,26.51531105041504 a25.728,25.728 0 0 1 3.935,3.5 v2.115 H12.968535743713378 a0.6000000000000001,0.6000000000000001 0 0 0 -0.6000000000000001,0.6000000000000001 V40.71531105041504 a0.6000000000000001,0.6000000000000001 0 0 0 0.6000000000000001,0.6000000000000001 H28.693535743713376 a0.6000000000000001,0.6000000000000001 0 0 0 0.6000000000000001,-0.6000000000000001 V32.73631105041504 a0.6000000000000001,0.6000000000000001 0 0 0 -0.6000000000000001,-0.6000000000000001 H27.105535743713382 C27.04853574371338,31.168311050415042 27.09453574371338,29.045311050415037 28.43253574371338,27.893311050415036 zM28.09353574371338,40.11531105041504 H13.56853574371338 V33.33531105041504 H28.09353574371338 zM15.651535743713378,32.13631105041504 V29.915311050415042 c0,-1.047 -4.381,-4.335 -4.426,-4.367 a21.223,21.223 0 0 1 -3.611,-3.915 a14.637,14.637 0 0 0 -1.372,-1.629 a2.7590000000000003,2.7590000000000003 0 0 0 -1.8,-0.529 c-0.922,-0.04900000000000001 -0.919,-0.1 -0.9,-0.44700000000000006 c0.06000000000000001,-1.12 1.481,-1.355 2.6630000000000003,-1.355 a5.889,5.889 0 0 1 2.588,1.262 c0.47700000000000004,0.31700000000000006 0.99,0.6580000000000001 1.553,0.99 c1.7480000000000002,1.033 2.8680000000000003,0.35800000000000004 3.379,-0.134 c0.537,-0.518 0.809,-1.6860000000000002 0.809,-3.47 V3.135311050415039 A1.3780000000000001,1.3780000000000001 0 0 1 15.860535743713378,1.715311050415039 a1.36,1.36 0 0 1 1.3250000000000002,1.3760000000000001 l0.022000000000000006,13.838000000000001 a0.6000000000000001,0.6000000000000001 0 0 0 0.6000000000000001,0.6000000000000001 h0 a0.6000000000000001,0.6000000000000001 0 0 0 0.6000000000000001,-0.6000000000000001 V12.80631105041504 a1.338,1.338 0 0 1 2.6500000000000004,-0.037000000000000005 l0.022000000000000006,4.366 a0.6000000000000001,0.6000000000000001 0 0 0 0.6000000000000001,0.6000000000000001 h0 a0.6000000000000001,0.6000000000000001 0 0 0 0.6000000000000001,-0.6000000000000001 V13.595311050415038 c0,-0.543 0.6070000000000001,-1 1.3250000000000002,-1 a1.212,1.212 0 0 1 1.3250000000000002,0.975 l0.06500000000000002,4.37 a0.6000000000000001,0.6000000000000001 0 0 0 0.6000000000000001,0.5910000000000001 h0 a0.6000000000000001,0.6000000000000001 0 0 0 0.5950000000000001,-0.6000000000000001 V14.307311050415038 a1.182,1.182 0 0 1 2.34,-0.024000000000000004 c0.015000000000000003,0.7000000000000001 0.05500000000000001,1.525 0.1,2.416 c0.17600000000000002,3.611 0.43900000000000006,9.067 -0.977,10.284 c-1.714,1.471 -1.818,3.949 -1.754,5.1530000000000005 z" id="svg_4" class=""/><path d="M3.0465357437133793,15.06531105041504 h0.011000000000000003 a0.6000000000000001,0.6000000000000001 0 0 0 0.462,-0.22900000000000004 l1.907,-2.4370000000000003 a0.6000000000000001,0.6000000000000001 0 1 0 -0.9450000000000001,-0.7400000000000001 l-0.9,1.147 a9.382,9.382 0 0 1 5.6,-8.459 L8.461535743713378,5.815311050415039 a0.6000000000000001,0.6000000000000001 0 1 0 1.078,0.527 l1.4220000000000002,-2.9 a0.6000000000000001,0.6000000000000001 0 0 0 -0.38200000000000006,-0.8430000000000001 L7.592535743713379,1.7853110504150393 a0.6000000000000001,0.6000000000000001 0 1 0 -0.31400000000000006,1.158 l1.3450000000000002,0.36500000000000005 a10.641,10.641 0 0 0 -6.235,9.484 L1.380535743713379,11.63431105041504 a0.6000000000000001,0.6000000000000001 0 0 0 -0.906,0.787 l2.119,2.438 A0.6000000000000001,0.6000000000000001 0 0 0 3.0465357437133793,15.06531105041504 z" id="svg_5" class=""/></g></svg>